<svg width="20" height="20" viewBox="0 0 20 20" fill="none" xmlns="http://www.w3.org/2000/svg">
<path d="M11.875 3.15216L13.4166 1.61049C13.6101 1.41695 13.8398 1.26342 14.0926 1.15867C14.3454 1.05391 14.6164 1 14.8901 1C15.1637 1 15.4347 1.05391 15.6875 1.15867C15.9403 1.26342 16.17 1.41695 16.3635 1.61049L17.8364 3.08341C18.227 3.47409 18.4464 4.0039 18.4464 4.55633C18.4464 5.10875 18.227 5.63856 17.8364 6.02924L16.2947 7.57091M11.875 3.15216L1.85829 13.1678C1.51244 13.5136 1.2993 13.9702 1.25621 14.4574L1.00412 17.3115C0.990584 17.4633 1.01049 17.6161 1.06243 17.7593C1.11437 17.9025 1.19709 18.0326 1.30476 18.1403C1.41242 18.2481 1.54241 18.3309 1.68556 18.383C1.82872 18.4351 1.98155 18.4551 2.13329 18.4417L4.98746 18.1897C5.4754 18.147 5.93273 17.9339 6.27912 17.5876L16.2947 7.57091M11.875 3.15216L16.2947 7.57091" stroke="white" stroke-width="1.5625" stroke-linecap="round" stroke-linejoin="round"/>
</svg>
