<svg width="25" height="25" viewBox="0 0 25 25" fill="none" xmlns="http://www.w3.org/2000/svg">
<path d="M22.9167 12.5H23.9584M12.5 2.08329V1.04163M12.5 23.9583V22.9166M20.8334 20.8333L19.7917 19.7916M20.8334 4.16663L19.7917 5.20829M4.16669 20.8333L5.20835 19.7916M4.16669 4.16663L5.20835 5.20829M1.04169 12.5H2.08335M12.5 18.75C14.1576 18.75 15.7473 18.0915 16.9194 16.9194C18.0915 15.7473 18.75 14.1576 18.75 12.5C18.75 10.8424 18.0915 9.25264 16.9194 8.08054C15.7473 6.90844 14.1576 6.24996 12.5 6.24996C10.8424 6.24996 9.25271 6.90844 8.0806 8.08054C6.9085 9.25264 6.25002 10.8424 6.25002 12.5C6.25002 14.1576 6.9085 15.7473 8.0806 16.9194C9.25271 18.0915 10.8424 18.75 12.5 18.75Z" stroke="#5E5E5E" stroke-width="1.5625" stroke-linecap="round" stroke-linejoin="round"/>
</svg>
