<svg width="25" height="25" viewBox="0 0 25 25" fill="none" xmlns="http://www.w3.org/2000/svg">
<path d="M22.875 12.5H23.9167M12.4583 2.08329V1.04163M12.4583 23.9583V22.9166M20.7917 20.8333L19.75 19.7916M20.7917 4.16663L19.75 5.20829M4.125 20.8333L5.16667 19.7916M4.125 4.16663L5.16667 5.20829M1 12.5H2.04167M12.4583 18.75C14.1159 18.75 15.7056 18.0915 16.8778 16.9194C18.0499 15.7473 18.7083 14.1576 18.7083 12.5C18.7083 10.8424 18.0499 9.25264 16.8778 8.08054C15.7056 6.90844 14.1159 6.24996 12.4583 6.24996C10.8007 6.24996 9.21102 6.90844 8.03892 8.08054C6.86681 9.25264 6.20833 10.8424 6.20833 12.5C6.20833 14.1576 6.86681 15.7473 8.03892 16.9194C9.21102 18.0915 10.8007 18.75 12.4583 18.75Z" stroke="#E7E7E7" stroke-width="1.5625" stroke-linecap="round" stroke-linejoin="round"/>
</svg>
